# xmcd
#
# Track frame offsets:
#	150
#	22600
#	35512
#	53625
#	73827
#	92137
#	111737
#	128690
#	146147
#	165315
#	181605
#	205787
#	221960
#	235710
#	254005
#	268382
#	287130
#	305320
#
# Disc length: 4287 seconds
#
# Revision: 0
# Processed by: cddbd v1.5.1PL0 Copyright (c) Steve Scherf et al.
# Submitted via: audiograbber 1.83.01
#
DISCID=0d10bd12
DTITLE=versch - Gute Wahl Hit Pool # 2 CD 1
DYEAR=1900
DGENRE=Schlager
TTITLE0=Hitsenator feat. Hayston, Jan - Games peolpe play
TTITLE1=Insert Name Projekt - The birds and the bees
TTITLE2=Ray, Kay - So ein Mann - so ein Mann
TTITLE3=Sebastian, Peter - Selamün aleykum
TTITLE4=Alexx - Last night a DJ saved my life
TTITLE5=Pascal, Felix - Bist Du sauer (Beautiful body)
TTITLE6=Race, Candy - Yes Sir, I can boogie
TTITLE7=Ibo - Spieglein - Spieglein
TTITLE8=Rayn, Patti - Lay love on you
TTITLE9=Sebastian, Peter - Hola Cica
TTITLE10=Dos dios feat. Mendes, Crisaide - Mama eu quero
TTITLE11=Markus, Peter - Kleine Taschenlampe brenn'
TTITLE12=Geier Sturzflug - Bruttosozialprodukt
TTITLE13=Lima, Ramiro de - Ride like a wind
TTITLE14=Die Zwei - Borriquito
TTITLE15=Nerco - Amore - summernight in Italy
TTITLE16=Hann, Bernhard - Dumm gelaufen
TTITLE17=Torben - Vergiss es
EXTD=
EXTT0=
EXTT1=
EXTT2=
EXTT3=
EXTT4=
EXTT5=
EXTT6=
EXTT7=
EXTT8=
EXTT9=
EXTT10=
EXTT11=
EXTT12=
EXTT13=
EXTT14=
EXTT15=
EXTT16=
EXTT17=
PLAYORDER=
